<svg width="23" height="20" viewBox="0 0 23 20" fill="none" xmlns="http://www.w3.org/2000/svg">
<path fill-rule="evenodd" clip-rule="evenodd" d="M21.9415 13.9532L14.9362 1.97762C14.2329 0.758398 12.9221 0.00166216 11.5045 2.73545e-06C10.0867 -0.00165687 8.7754 0.751956 8.06336 1.97767L1.05543 13.9576C0.328751 15.1795 0.312312 16.7105 1.01618 17.9592C1.72063 19.2089 3.03966 19.9866 4.4744 19.9983L18.5123 19.9983C19.9619 19.9842 21.2784 19.2089 21.9828 17.9603C22.6863 16.7132 22.6706 15.1856 21.9415 13.9532ZM2.77808 14.9737L9.79121 2.98491C10.1464 2.37354 10.7978 1.99918 11.5021 2C12.2064 2.00083 12.8576 2.37673 13.2068 2.98222L20.2177 14.9672C20.5852 15.5885 20.5931 16.3533 20.2408 16.9777C19.8881 17.603 19.2287 17.9913 18.5025 17.9984L4.48253 17.9983C3.77193 17.9925 3.11123 17.6029 2.75844 16.9771C2.40604 16.3519 2.41427 15.5855 2.77808 14.9737ZM11.5003 15.9983C12.0528 15.9983 12.5007 15.5506 12.5007 14.9983C12.5007 14.4461 12.0528 13.9983 11.5003 13.9983C10.9479 13.9983 10.5 14.4461 10.5 14.9983C10.5 15.5506 10.9479 15.9983 11.5003 15.9983ZM12.5036 5.99835H10.503V12.9983H12.5036V5.99835Z" fill="#994218"/>
</svg>
