<svg width="23" height="22" viewBox="0 0 23 22" fill="none" xmlns="http://www.w3.org/2000/svg">
<path fill-rule="evenodd" clip-rule="evenodd" d="M0.5 11C0.5 17.0751 5.42487 22 11.5 22C17.5751 22 22.5 17.0751 22.5 11C22.5 4.92487 17.5751 0 11.5 0C5.42487 0 0.5 4.92487 0.5 11ZM20.5 11C20.5 15.9706 16.4706 20 11.5 20C6.52944 20 2.5 15.9706 2.5 11C2.5 6.02944 6.52944 2 11.5 2C16.4706 2 20.5 6.02944 20.5 11ZM12.5036 12.9983H13.503V14.9983H9.50295V12.9983H10.503V10.9983H9.50295V8.99835H12.5036V12.9983ZM12.5007 6.99835C12.5007 7.55063 12.0528 7.99835 11.5003 7.99835C10.9479 7.99835 10.5 7.55063 10.5 6.99835C10.5 6.44606 10.9479 5.99835 11.5003 5.99835C12.0528 5.99835 12.5007 6.44606 12.5007 6.99835Z" fill="#15499F"/>
</svg>
