<svg width="25" height="24" viewBox="0 0 25 24" fill="none" xmlns="http://www.w3.org/2000/svg">
<path fill-rule="evenodd" clip-rule="evenodd" d="M19.5 10C19.5 5.94082 17.2616 3.1235 14.3654 2.27771C14.2605 2.00636 14.0948 1.7541 13.8695 1.54243C13.0997 0.81919 11.9003 0.81919 11.1305 1.54243C10.9057 1.75364 10.7402 2.00525 10.6353 2.27592C7.73535 3.11803 5.5 5.92919 5.5 10C5.5 12.6339 4.96898 14.1098 3.98596 15.1793C3.82161 15.3582 3.37632 15.7678 3.07468 16.0453L3.07465 16.0453L3.07465 16.0453L3.0745 16.0454C2.93187 16.1766 2.82138 16.2783 2.78796 16.3119L2.5 16.604V20.0141H8.58798C8.79384 21.0761 9.37009 21.7867 10.4122 22.4226C11.6941 23.2049 13.3059 23.2049 14.5878 22.4226C15.5075 21.8614 16.1241 20.9989 16.3743 20.0141H22.5V16.604L22.212 16.3119C22.1817 16.2812 22.0757 16.1834 21.937 16.0555C21.6363 15.7781 21.1823 15.3592 21.0154 15.1769C20.0317 14.1024 19.5 12.6246 19.5 10ZM14.2367 20.0141H10.6786C10.8199 20.2769 11.0607 20.4754 11.454 20.7154C12.0963 21.1073 12.9037 21.1073 13.546 20.7154C13.8434 20.5339 14.0758 20.2937 14.2367 20.0141ZM19.5402 16.5274C19.7506 16.7573 20.2016 17.1774 20.5 17.4519V18.0141H4.5V17.4524C4.79607 17.1811 5.24843 16.7613 5.45849 16.5327C6.79422 15.0794 7.5 13.1178 7.5 10C7.5 6.21989 9.83277 4.01238 12.5 4.01238C15.1597 4.01238 17.5 6.23129 17.5 10C17.5 13.1078 18.206 15.07 19.5402 16.5274Z" fill="#A6810C"/>
</svg>
